<svg width="26" height="26" viewBox="0 0 26 26" fill="none" xmlns="http://www.w3.org/2000/svg">
<path d="M8.9056 17.1666C8.9056 17.9954 8.57636 18.7903 7.99031 19.3764C7.40426 19.9624 6.6094 20.2916 5.7806 20.2916M17.2389 17.1666C17.2389 17.9954 17.5682 18.7903 18.1542 19.3764C18.7403 19.9624 19.5351 20.2916 20.3639 20.2916M13.0723 17.1666V21.3333M3.69727 7.79165C3.69727 7.23911 3.91676 6.70921 4.30746 6.31851C4.69816 5.92781 5.22806 5.70831 5.7806 5.70831H20.3639C20.9165 5.70831 21.4464 5.92781 21.8371 6.31851C22.2278 6.70921 22.4473 7.23911 22.4473 7.79165V11.9583C22.4473 12.5108 22.2278 13.0408 21.8371 13.4315C21.4464 13.8222 20.9165 14.0416 20.3639 14.0416H5.7806C5.22806 14.0416 4.69816 13.8222 4.30746 13.4315C3.91676 13.0408 3.69727 12.5108 3.69727 11.9583V7.79165Z" stroke="#636363" stroke-width="2" stroke-linecap="round" stroke-linejoin="round"/>
<path d="M7.86328 14.0417V10.9167C7.86328 10.6404 7.97303 10.3754 8.16838 10.1801C8.36373 9.98475 8.62868 9.875 8.90495 9.875H17.2383C17.5145 9.875 17.7795 9.98475 17.9749 10.1801C18.1702 10.3754 18.2799 10.6404 18.2799 10.9167V14.0417" stroke="#636363" stroke-width="2" stroke-linecap="round" stroke-linejoin="round"/>
</svg>
