<svg width="25" height="24" viewBox="0 0 25 24" fill="none" xmlns="http://www.w3.org/2000/svg">
<path d="M8.85742 12V10H10.8574V12H8.85742ZM14.8574 12V10H16.8574V12H14.8574ZM3.85742 22V14H4.85742V10C4.85742 8.9 5.06576 7.86233 5.48242 6.887C5.89909 5.91167 6.47009 5.06167 7.19542 4.337C7.92009 3.61233 8.77009 3.04167 9.74542 2.625C10.7208 2.20833 11.7581 2 12.8574 2C13.9574 2 14.9951 2.20833 15.9704 2.625C16.9458 3.04167 17.7958 3.61267 18.5204 4.338C19.2451 5.06267 19.8158 5.91267 20.2324 6.888C20.6491 7.86333 20.8574 8.90067 20.8574 10V14H21.8574V22H3.85742ZM5.85742 20H7.85742V16H5.85742V20ZM9.85742 20H11.8574V16H9.85742V20ZM6.85742 14H11.8574V4.075C10.4241 4.30833 9.23242 4.979 8.28242 6.087C7.33242 7.195 6.85742 8.49933 6.85742 10V14ZM13.8574 14H18.8574V10C18.8574 8.5 18.3824 7.196 17.4324 6.088C16.4824 4.98 15.2908 4.309 13.8574 4.075V14ZM13.8574 20H15.8574V16H13.8574V20ZM17.8574 20H19.8574V16H17.8574V20Z" fill="#636363"/>
</svg>
