<svg width="17" height="17" viewBox="0 0 17 17" fill="none" xmlns="http://www.w3.org/2000/svg">
<path d="M0 1.59375C0 1.45285 0.0559708 1.31773 0.1556 1.2181C0.255228 1.11847 0.390354 1.0625 0.53125 1.0625H2.125C2.2435 1.06253 2.35859 1.10219 2.45196 1.17515C2.54534 1.24812 2.61163 1.35021 2.64031 1.46519L3.07063 3.1875H15.4062C15.4843 3.18757 15.5613 3.20482 15.6319 3.23802C15.7025 3.27122 15.7649 3.31956 15.8147 3.3796C15.8645 3.43965 15.9004 3.50992 15.92 3.58543C15.9396 3.66093 15.9423 3.73983 15.9279 3.8165L14.3342 12.3165C14.3114 12.4382 14.2468 12.5482 14.1515 12.6273C14.0563 12.7065 13.9364 12.7499 13.8125 12.75H4.25C4.12615 12.7499 4.00623 12.7065 3.91097 12.6273C3.81571 12.5482 3.7511 12.4382 3.72831 12.3165L2.13562 3.83244L1.71063 2.125H0.53125C0.390354 2.125 0.255228 2.06903 0.1556 1.9694C0.0559708 1.86977 0 1.73465 0 1.59375ZM3.29587 4.25L4.69094 11.6875H13.3716L14.7666 4.25H3.29587ZM5.3125 12.75C4.74891 12.75 4.20841 12.9739 3.8099 13.3724C3.41138 13.7709 3.1875 14.3114 3.1875 14.875C3.1875 15.4386 3.41138 15.9791 3.8099 16.3776C4.20841 16.7761 4.74891 17 5.3125 17C5.87609 17 6.41659 16.7761 6.8151 16.3776C7.21362 15.9791 7.4375 15.4386 7.4375 14.875C7.4375 14.3114 7.21362 13.7709 6.8151 13.3724C6.41659 12.9739 5.87609 12.75 5.3125 12.75ZM12.75 12.75C12.1864 12.75 11.6459 12.9739 11.2474 13.3724C10.8489 13.7709 10.625 14.3114 10.625 14.875C10.625 15.4386 10.8489 15.9791 11.2474 16.3776C11.6459 16.7761 12.1864 17 12.75 17C13.3136 17 13.8541 16.7761 14.2526 16.3776C14.6511 15.9791 14.875 15.4386 14.875 14.875C14.875 14.3114 14.6511 13.7709 14.2526 13.3724C13.8541 12.9739 13.3136 12.75 12.75 12.75ZM5.3125 13.8125C5.59429 13.8125 5.86454 13.9244 6.0638 14.1237C6.26306 14.323 6.375 14.5932 6.375 14.875C6.375 15.1568 6.26306 15.427 6.0638 15.6263C5.86454 15.8256 5.59429 15.9375 5.3125 15.9375C5.03071 15.9375 4.76046 15.8256 4.5612 15.6263C4.36194 15.427 4.25 15.1568 4.25 14.875C4.25 14.5932 4.36194 14.323 4.5612 14.1237C4.76046 13.9244 5.03071 13.8125 5.3125 13.8125ZM12.75 13.8125C13.0318 13.8125 13.302 13.9244 13.5013 14.1237C13.7006 14.323 13.8125 14.5932 13.8125 14.875C13.8125 15.1568 13.7006 15.427 13.5013 15.6263C13.302 15.8256 13.0318 15.9375 12.75 15.9375C12.4682 15.9375 12.198 15.8256 11.9987 15.6263C11.7994 15.427 11.6875 15.1568 11.6875 14.875C11.6875 14.5932 11.7994 14.323 11.9987 14.1237C12.198 13.9244 12.4682 13.8125 12.75 13.8125Z" fill="#636363"/>
</svg>
