<svg width="16" height="16" viewBox="0 0 16 16" fill="none" xmlns="http://www.w3.org/2000/svg">
<path d="M8.06629 0.260254C6.53235 0.260254 5.03285 0.71512 3.75743 1.56733C2.48201 2.41954 1.48793 3.63082 0.900921 5.048C0.313907 6.46517 0.160318 8.02459 0.459575 9.52906C0.758831 11.0335 1.49749 12.4155 2.58215 13.5001C3.66681 14.5848 5.04875 15.3234 6.55322 15.6227C8.05768 15.922 9.6171 15.7684 11.0343 15.1814C12.4515 14.5943 13.6627 13.6003 14.5149 12.3248C15.3672 11.0494 15.822 9.54993 15.822 8.01599C15.8199 5.95971 15.002 3.98827 13.548 2.53425C12.094 1.08024 10.1226 0.262425 8.06629 0.260254ZM8.06629 14.5785C6.76834 14.5785 5.49954 14.1936 4.42033 13.4725C3.34113 12.7514 2.49999 11.7265 2.00328 10.5274C1.50658 9.32822 1.37662 8.00871 1.62984 6.7357C1.88306 5.46269 2.50808 4.29336 3.42587 3.37557C4.34365 2.45778 5.51299 1.83276 6.786 1.57954C8.05901 1.32632 9.37852 1.45628 10.5777 1.95299C11.7768 2.44969 12.8017 3.29083 13.5228 4.37003C14.2439 5.44924 14.6288 6.71804 14.6288 8.01599C14.6269 9.75588 13.9348 11.4239 12.7045 12.6542C11.4742 13.8845 9.80618 14.5766 8.06629 14.5785ZM12.839 8.01599C12.839 8.17422 12.7762 8.32596 12.6643 8.43785C12.5524 8.54973 12.4007 8.61258 12.2425 8.61258H8.06629C7.90806 8.61258 7.75631 8.54973 7.64443 8.43785C7.53255 8.32596 7.46969 8.17422 7.46969 8.01599V3.83982C7.46969 3.6816 7.53255 3.52985 7.64443 3.41797C7.75631 3.30608 7.90806 3.24323 8.06629 3.24323C8.22451 3.24323 8.37626 3.30608 8.48814 3.41797C8.60003 3.52985 8.66288 3.6816 8.66288 3.83982V7.41939H12.2425C12.4007 7.41939 12.5524 7.48225 12.6643 7.59413C12.7762 7.70602 12.839 7.85776 12.839 8.01599Z" fill="#636363"/>
</svg>
