<svg width="25" height="24" viewBox="0 0 25 24" fill="none" xmlns="http://www.w3.org/2000/svg">
<path d="M18.7148 6V4H20.7148V2H6.71484C5.61484 2 4.71484 2.9 4.71484 4V20C4.71484 21.1 5.61484 22 6.71484 22H20.7148V20H16.6848C17.3133 19.5393 17.8246 18.9371 18.1772 18.2423C18.5299 17.5474 18.714 16.7793 18.7148 16V11H8.71484V16C8.71484 17.64 9.52484 19.09 10.7448 20H6.71484V4H8.71484V6C8.71484 6.55 9.16484 7 9.71484 7H17.7148C18.2648 7 18.7148 6.55 18.7148 6ZM13.7148 8C14.2648 8 14.7148 8.45 14.7148 9C14.7148 9.55 14.2648 10 13.7148 10C13.1648 10 12.7148 9.55 12.7148 9C12.7148 8.45 13.1648 8 13.7148 8Z" fill="#636363"/>
</svg>
