<svg width="16" height="19" viewBox="0 0 16 19" fill="none" xmlns="http://www.w3.org/2000/svg">
<path d="M7.53238 4.86555C8.00504 4.86555 8.46709 4.72539 8.86009 4.4628C9.25309 4.2002 9.5594 3.82696 9.74028 3.39028C9.92115 2.9536 9.96848 2.47309 9.87627 2.00952C9.78406 1.54594 9.55645 1.12012 9.22223 0.785897C8.88801 0.451676 8.46219 0.224069 7.99861 0.131858C7.53503 0.0396468 7.05452 0.086973 6.61784 0.267852C6.18116 0.448731 5.80793 0.755038 5.54533 1.14804C5.28274 1.54104 5.14258 2.00309 5.14258 2.47574C5.14258 3.10956 5.39436 3.71742 5.84253 4.16559C6.29071 4.61377 6.89857 4.86555 7.53238 4.86555ZM7.53238 1.04186C7.81598 1.04186 8.0932 1.12596 8.329 1.28351C8.56481 1.44107 8.74859 1.66501 8.85712 1.92702C8.96565 2.18903 8.99404 2.47734 8.93871 2.75548C8.88339 3.03363 8.74682 3.28912 8.54629 3.48965C8.34576 3.69019 8.09027 3.82675 7.81212 3.88208C7.53397 3.9374 7.24567 3.90901 6.98366 3.80048C6.72165 3.69195 6.49771 3.50817 6.34015 3.27237C6.18259 3.03657 6.0985 2.75934 6.0985 2.47574C6.0985 2.09546 6.24957 1.73074 6.51847 1.46184C6.78738 1.19293 7.15209 1.04186 7.53238 1.04186ZM14.6126 10.0769L11.0111 5.99354C10.7869 5.7392 10.5111 5.5355 10.2021 5.39595C9.89305 5.25641 9.55786 5.18422 9.21879 5.18419H5.84598C5.50696 5.18412 5.17181 5.25618 4.86279 5.39559C4.55376 5.53499 4.27793 5.73855 4.05362 5.99274L0.452183 10.0769C0.318385 10.2095 0.212004 10.3671 0.139112 10.5407C0.0662211 10.7144 0.0282474 10.9007 0.0273597 11.089C0.025567 11.4694 0.174942 11.8349 0.442624 12.1051C0.710305 12.3753 1.07437 12.5281 1.45472 12.5299C1.83507 12.5317 2.20056 12.3823 2.47077 12.1146L4.1524 10.766L2.70816 16.2506C2.55633 16.5956 2.54647 16.9865 2.68072 17.3388C2.81497 17.691 3.08252 17.9762 3.42547 18.1327C3.76843 18.2891 4.1592 18.3042 4.5132 18.1747C4.86721 18.0452 5.15599 17.7815 5.31703 17.4407L7.53238 13.6282L9.74773 17.4447C9.90878 17.7855 10.1975 18.0492 10.5516 18.1787C10.9056 18.3082 11.2963 18.2931 11.6393 18.1367C11.9822 17.9802 12.2498 17.695 12.384 17.3428C12.5183 16.9905 12.5084 16.5996 12.3566 16.2546L10.9124 10.7684L12.594 12.1146C12.8658 12.3731 13.2281 12.5147 13.6032 12.5091C13.9782 12.5036 14.3361 12.3513 14.6002 12.0849C14.8643 11.8185 15.0135 11.4593 15.0158 11.0842C15.0181 10.7092 14.8733 10.3481 14.6126 10.0785V10.0769ZM13.9251 11.4168C13.8807 11.4612 13.828 11.4965 13.77 11.5206C13.712 11.5446 13.6498 11.557 13.587 11.557C13.5241 11.557 13.4619 11.5446 13.4039 11.5206C13.3459 11.4965 13.2932 11.4612 13.2488 11.4168C13.2368 11.4041 13.2237 11.3923 13.2098 11.3818L10.381 9.11303C10.3026 9.0501 10.2064 9.01349 10.106 9.00841C10.0056 9.00333 9.90611 9.03004 9.82176 9.08475C9.7374 9.13945 9.67245 9.21936 9.63614 9.31311C9.59982 9.40686 9.59399 9.50967 9.61948 9.60693L11.4413 16.5318C11.4494 16.559 11.4592 16.5856 11.4708 16.6114C11.5243 16.7264 11.53 16.8579 11.4866 16.977C11.4433 17.0962 11.3543 17.1932 11.2394 17.2467C11.1244 17.3003 10.9929 17.306 10.8738 17.2626C10.7547 17.2192 10.6576 17.1303 10.6041 17.0153C10.5983 17.0021 10.5917 16.9894 10.5842 16.9771L7.94582 12.4333C7.9038 12.3608 7.8435 12.3007 7.77094 12.2589C7.69838 12.2171 7.61612 12.1951 7.53238 12.1951C7.44865 12.1951 7.36638 12.2171 7.29383 12.2589C7.22127 12.3007 7.16096 12.3608 7.11895 12.4333L4.4806 16.9779C4.47311 16.9902 4.46645 17.0029 4.46068 17.0161C4.40713 17.1311 4.31011 17.22 4.19097 17.2634C4.07183 17.3068 3.94033 17.3011 3.82539 17.2475C3.71046 17.194 3.62151 17.097 3.57811 16.9778C3.53472 16.8587 3.54042 16.7272 3.59398 16.6122C3.60557 16.5864 3.61541 16.5598 3.62346 16.5326L5.44528 9.60772C5.47039 9.51083 5.46444 9.40851 5.42828 9.31518C5.39212 9.22185 5.32757 9.14223 5.24374 9.08754C5.16634 9.03657 5.07592 9.00892 4.98326 9.00788C4.87435 9.00779 4.76868 9.04488 4.68373 9.11303L1.855 11.3818C1.84105 11.3923 1.82799 11.4041 1.81597 11.4168C1.72628 11.5065 1.60464 11.5569 1.47781 11.5569C1.35097 11.5569 1.22934 11.5065 1.13965 11.4168C1.04997 11.3271 0.999581 11.2055 0.999581 11.0786C0.999581 10.9518 1.04997 10.8302 1.13965 10.7405L1.16036 10.719L4.77056 6.62524C4.90515 6.47273 5.07065 6.3506 5.25606 6.26695C5.44148 6.18331 5.64257 6.14007 5.84598 6.14011H9.21879C9.4222 6.14007 9.62329 6.18331 9.8087 6.26695C9.99412 6.3506 10.1596 6.47273 10.2942 6.62524L13.9052 10.719L13.9259 10.7405C13.9703 10.7849 14.0055 10.8377 14.0295 10.8957C14.0535 10.9538 14.0658 11.016 14.0657 11.0788C14.0656 11.1416 14.0532 11.2038 14.029 11.2618C14.0049 11.3198 13.9696 11.3725 13.9251 11.4168Z" fill="#636363"/>
</svg>
