<svg width="19" height="19" viewBox="0 0 19 19" fill="none" xmlns="http://www.w3.org/2000/svg">
<path d="M3.57023 0.666687C2.34588 0.666687 1.12 1.59145 1.12 3.44096L3.57023 8.37301L6.01892 3.44096C6.01892 1.59145 4.79457 0.666687 3.57023 0.666687ZM14.3713 2.16942C14.1073 2.18059 13.8509 2.23107 13.6367 2.27731L13.7821 2.95546C13.9963 2.9073 14.2182 2.87686 14.4057 2.86299L14.3713 2.16942ZM3.57023 2.20795C4.24744 2.20795 4.79457 2.76011 4.79457 3.44096C4.79457 4.12297 4.24744 4.67397 3.57023 4.67397C2.89416 4.67397 2.34588 4.12297 2.34588 3.44096C2.34588 2.76011 2.89416 2.20795 3.57023 2.20795ZM15.1327 2.21566L15.0179 2.89767C15.2054 2.93735 15.3928 2.98706 15.5574 3.08647L15.8902 2.47767C15.6568 2.35244 15.3967 2.23993 15.1327 2.21566ZM12.9327 2.47382C12.6993 2.56552 12.4659 2.6476 12.2669 2.72813L12.5386 3.3639C12.749 3.27373 12.9709 3.19513 13.1584 3.12886L12.9327 2.47382ZM16.5177 2.99014L15.9935 3.44096C16.1313 3.59971 16.2384 3.79545 16.3226 3.95343L16.9386 3.64133C16.8085 3.38894 16.6937 3.19783 16.5177 2.99014ZM11.628 3.02482C11.3946 3.14465 11.2033 3.25139 10.9967 3.35619L11.3334 3.96499C11.5323 3.8494 11.7504 3.73765 11.9264 3.64903L11.628 3.02482ZM10.3921 3.71454C10.1894 3.83398 9.9904 3.95343 9.79527 4.08444L10.1702 4.66241C10.3577 4.53911 10.5528 4.42352 10.7441 4.30792L10.3921 3.71454ZM17.1758 4.40425C16.9501 4.44278 16.7205 4.46976 16.4947 4.49673C16.5101 4.68939 16.4986 4.89746 16.4603 5.05929L17.1299 5.21727C17.1681 4.93984 17.2026 4.65471 17.1758 4.40425ZM9.2137 4.46975C9.0224 4.60076 8.83492 4.73562 8.64362 4.86663L9.04153 5.43304C9.22518 5.29818 9.41266 5.17103 9.60014 5.04002L9.2137 4.46975ZM8.08118 5.28277C7.88988 5.42149 7.69092 5.57561 7.5264 5.70277L7.94344 6.25377C8.15388 6.09964 8.29927 5.98405 8.49057 5.84148L8.08118 5.28277ZM16.2307 5.59102C16.116 5.76827 15.9821 5.94552 15.8481 6.08038L16.3494 6.56202C16.5139 6.36551 16.6899 6.16515 16.8123 5.96478L16.2307 5.59102ZM6.97927 6.13432C6.79179 6.28074 6.60431 6.43101 6.43979 6.56973L6.87597 7.10532C7.05579 6.95504 7.23944 6.80092 7.40779 6.67762L6.97927 6.13432ZM15.3737 6.52349C15.1977 6.66606 15.0141 6.80477 14.8457 6.92036L15.2398 7.49063C15.4426 7.35192 15.6415 7.20164 15.8137 7.06293L15.3737 6.52349ZM5.90797 7.02055C5.72814 7.16697 5.55597 7.32109 5.37997 7.47137L5.82762 7.99925C5.99979 7.84898 6.17197 7.6987 6.34797 7.55228L5.90797 7.02055ZM14.2833 7.29027C14.0881 7.40586 13.8854 7.52531 13.7017 7.62549L14.0307 8.23814C14.2374 8.11099 14.4707 7.99925 14.6429 7.88365L14.2833 7.29027ZM4.85579 7.92989C4.68362 8.08402 4.51527 8.23814 4.3431 8.39612L4.80605 8.91245C4.9744 8.75832 5.14657 8.6042 5.31492 8.45007L4.85579 7.92989ZM13.101 7.9453C12.8982 8.04549 12.6954 8.14952 12.4927 8.2497L12.7873 8.87392C13.0245 8.75832 13.2005 8.66199 13.4147 8.56181L13.101 7.9453ZM11.8767 8.53869C11.6662 8.63502 11.4634 8.7275 11.2492 8.81612L11.5285 9.45189C11.7389 9.35941 11.9494 9.26309 12.1598 9.16676L11.8767 8.53869ZM3.83805 8.87392C3.64292 9.04731 3.5071 9.18217 3.32918 9.35556L3.8151 9.85647C3.99492 9.68308 4.14031 9.53281 4.30866 9.38639L3.83805 8.87392ZM10.6217 9.0974C10.4113 9.18602 10.2008 9.2785 9.9904 9.36712L10.2582 10.0106C10.4725 9.92198 10.6829 9.8295 10.8934 9.73702L10.6217 9.0974ZM9.35527 9.63684C9.14483 9.72932 8.9344 9.82179 8.72014 9.90656L8.98797 10.55C9.1984 10.4614 9.41266 10.3689 9.6231 10.2803L9.35527 9.63684ZM16.4259 9.91427C15.2015 9.91427 13.9772 10.839 13.9772 12.6885L16.4259 17.6206L18.8746 12.6885C18.8746 10.839 17.6502 9.91427 16.4259 9.91427ZM8.08501 10.1763C7.86692 10.2765 7.63736 10.3689 7.44988 10.4499L7.72153 11.0895C7.94727 10.9932 8.16153 10.9007 8.35284 10.8159L8.08501 10.1763ZM6.81475 10.7234C6.60814 10.8198 6.3671 10.9277 6.18344 11.0124L6.46657 11.6443C6.69231 11.5442 6.89127 11.444 7.09023 11.3592L6.81475 10.7234ZM5.55214 11.3014C5.33788 11.4054 5.11597 11.5133 4.92466 11.6097L5.23457 12.23C5.44118 12.1221 5.65544 12.0219 5.84292 11.9295L5.55214 11.3014ZM16.4259 11.4555C17.1031 11.4555 17.6502 12.0065 17.6502 12.6885C17.6502 13.3706 17.1031 13.9216 16.4259 13.9216C15.7487 13.9216 15.2015 13.3706 15.2015 12.6885C15.2015 12.0065 15.7487 11.4555 16.4259 11.4555ZM4.30484 11.9295C4.10205 12.0412 3.89927 12.1568 3.69266 12.2763L4.03701 12.8773C4.23214 12.7618 4.4311 12.6539 4.63005 12.546L4.30484 11.9295ZM3.09197 12.65C2.87732 12.7733 2.66995 12.939 2.49127 13.0584L2.90831 13.6133C3.09847 13.4746 3.30317 13.332 3.46692 13.2318L3.09197 12.65ZM1.94797 13.5208C1.76431 13.6904 1.58334 13.8869 1.44292 14.0526L1.9671 14.5034C2.1144 14.3223 2.24257 14.1874 2.41475 14.0333L1.94797 13.5208ZM10.2812 13.5709L10.3424 14.2606C10.5414 14.226 10.7403 14.2491 10.9393 14.2799L11.0579 13.5979C10.8054 13.5594 10.5375 13.5324 10.2812 13.5709ZM8.85788 13.9562L9.11805 14.5997C9.31701 14.5111 9.52362 14.4417 9.73405 14.3762C9.66136 14.1566 9.60779 13.9331 9.5504 13.7096C9.30936 13.779 9.06831 13.8715 8.85788 13.9562ZM11.8231 13.9216L11.4328 14.4918C11.5935 14.6113 11.7504 14.7384 11.8767 14.8964L12.397 14.4417C12.2019 14.2414 12.0527 14.0526 11.8231 13.9216ZM8.20744 14.2683C7.99701 14.3762 7.79423 14.4995 7.59144 14.619L7.93962 15.2162C8.13857 15.1083 8.3337 14.9812 8.52883 14.8771L8.20744 14.2683ZM1.02244 14.6922C0.906888 14.9426 0.813149 15.2124 0.769531 15.4513L1.44675 15.5707C1.48807 15.3511 1.54737 15.1931 1.63423 15.0043C1.42417 14.9118 1.22369 14.8001 1.02244 14.6922ZM6.99457 14.9927C6.79944 15.1199 6.60814 15.247 6.41684 15.378L6.79944 15.956C6.99075 15.8289 7.17823 15.6979 7.36953 15.5707L6.99457 14.9927ZM12.837 15.039L12.2593 15.4166C12.3817 15.6015 12.5003 15.7942 12.6113 15.9907L13.2081 15.6439C13.0742 15.4281 12.9786 15.2355 12.837 15.039ZM5.84675 15.7711C5.65544 15.8982 5.46414 16.0215 5.27666 16.1564L5.65927 16.7344C5.84292 16.5995 6.03805 16.4723 6.23318 16.3413L5.84675 15.7711ZM1.4544 16.1371C1.23287 16.1834 1.00943 16.2219 0.786749 16.2643C0.826923 16.534 0.934436 16.796 1.03162 17.0041L1.65336 16.7035C1.57033 16.5109 1.49151 16.3105 1.4544 16.1371ZM13.5487 16.245L12.9518 16.5918C13.0704 16.7999 13.2081 17.0233 13.3191 17.2006L13.8968 16.8268C13.7667 16.6226 13.6558 16.43 13.5487 16.245ZM4.7104 16.534C4.5191 16.6534 4.33162 16.769 4.13266 16.8808L4.47318 17.4857C4.67597 17.3663 4.87875 17.2468 5.07388 17.1197L4.7104 16.534ZM1.9824 17.1621L1.51179 17.6707C1.72452 17.8749 1.98699 18.0098 2.27318 18.0714L2.42623 17.3971C2.25635 17.3624 2.09757 17.2777 1.9824 17.1621ZM3.5511 17.1736C3.35941 17.2622 3.16045 17.3316 2.95423 17.374L3.1111 18.0521C3.35673 18.0021 3.58783 17.9096 3.81892 17.8132L3.5511 17.1736ZM14.2756 17.3586L13.7438 17.794C13.9083 17.9982 14.1111 18.1947 14.2871 18.3334L14.7118 17.7863C14.5434 17.6553 14.3981 17.4973 14.2756 17.3586ZM15.1977 18.0329L15.0255 18.7072C15.3278 18.7688 15.5535 18.7881 15.8367 18.7573L15.7525 18.0676C15.565 18.0984 15.3814 18.0791 15.1977 18.0329Z" fill="#636363"/>
</svg>
