<svg width="17" height="20" viewBox="0 0 17 20" fill="none" xmlns="http://www.w3.org/2000/svg">
<path d="M16.5046 7.93103C16.5046 8.2054 16.3957 8.46852 16.2017 8.66252C16.0077 8.85653 15.7445 8.96552 15.4702 8.96552C15.1958 8.96552 14.9327 8.85653 14.7387 8.66252C14.5447 8.46852 14.4357 8.2054 14.4357 7.93103C14.4357 6.37632 13.8181 4.88528 12.7187 3.78593C11.6194 2.68657 10.1283 2.06897 8.57361 2.06897C7.0189 2.06897 5.52786 2.68657 4.4285 3.78593C3.32915 4.88528 2.71154 6.37632 2.71154 7.93103C2.71154 10.0862 3.36499 10.7155 4.12103 11.4448C4.87706 12.1741 5.81499 13.0784 5.81499 15.1724C5.81499 15.904 6.10563 16.6057 6.62297 17.1231C7.14031 17.6404 7.84198 17.931 8.57361 17.931C9.34947 17.931 9.9693 17.6121 10.5348 16.9276C10.7115 16.7228 10.9614 16.5954 11.231 16.5727C11.5005 16.55 11.7682 16.6337 11.9767 16.8059C12.1852 16.9782 12.318 17.2252 12.3466 17.4942C12.3752 17.7631 12.2973 18.0326 12.1296 18.2448C11.1676 19.4095 9.97103 20 8.57361 20C7.29368 19.9986 6.06656 19.4896 5.16151 18.5845C4.25645 17.6795 3.7474 16.4523 3.74603 15.1724C3.74603 13.9578 3.34689 13.5724 2.68482 12.931C1.77447 12.0569 0.642578 10.9647 0.642578 7.93103C0.642578 5.82759 1.47817 3.8103 2.96552 2.32295C4.45288 0.835589 6.47017 0 8.57361 0C10.6771 0 12.6943 0.835589 14.1817 2.32295C15.6691 3.8103 16.5046 5.82759 16.5046 7.93103ZM13.0452 12.5526C12.9275 12.4845 12.7977 12.4403 12.663 12.4224C12.5282 12.4046 12.3913 12.4134 12.26 12.4485C12.1287 12.4835 12.0057 12.5441 11.8978 12.6268C11.7899 12.7094 11.6994 12.8125 11.6314 12.9302C11.5935 12.9962 11.5349 13.0478 11.4647 13.077C11.3945 13.1062 11.3165 13.1114 11.243 13.0917C11.1696 13.0721 11.1047 13.0286 11.0584 12.9682C11.0122 12.9078 10.9872 12.8338 10.9874 12.7578C10.9874 12.1017 11.3021 11.6491 11.815 10.9647C12.3667 10.2284 13.0564 9.31034 13.0564 7.93103C13.0564 6.74213 12.5841 5.60193 11.7434 4.76125C10.9027 3.92057 9.76251 3.44828 8.57361 3.44828C7.38471 3.44828 6.2445 3.92057 5.40382 4.76125C4.56314 5.60193 4.09085 6.74213 4.09085 7.93103C4.09085 8.2054 4.19984 8.46852 4.39385 8.66252C4.58785 8.85653 4.85097 8.96552 5.12534 8.96552C5.3997 8.96552 5.66282 8.85653 5.85683 8.66252C6.05083 8.46852 6.15982 8.2054 6.15982 7.93103C6.15982 7.29086 6.41413 6.6769 6.8668 6.22423C7.31948 5.77155 7.93344 5.51724 8.57361 5.51724C9.21379 5.51724 9.82775 5.77155 10.2804 6.22423C10.7331 6.6769 10.9874 7.29086 10.9874 7.93103C10.9874 8.58707 10.6728 9.03966 10.1598 9.72414C9.60809 10.4612 8.91844 11.3793 8.91844 12.7586C8.9184 13.29 9.09371 13.8066 9.41719 14.2282C9.74066 14.6498 10.1942 14.9528 10.7075 15.0904C11.2208 15.2279 11.7651 15.1922 12.2561 14.9888C12.747 14.7854 13.1571 14.4257 13.4228 13.9655C13.56 13.7281 13.5973 13.4458 13.5265 13.1809C13.4556 12.9159 13.2825 12.6899 13.0452 12.5526Z" fill="#636363"/>
</svg>
