<svg width="25" height="25" viewBox="0 0 25 25" fill="none" xmlns="http://www.w3.org/2000/svg">
<path d="M5.95312 12.7109V4.71094M19.9531 20.7109V17.7109M5.95312 20.7109V16.7109M19.9531 13.7109V4.71094M12.9531 7.71094V4.71094M12.9531 20.7109V11.7109" stroke="#636363" stroke-linecap="round"/>
<path d="M5.95312 16.7109C7.05769 16.7109 7.95312 15.8155 7.95312 14.7109C7.95312 13.6064 7.05769 12.7109 5.95312 12.7109C4.84856 12.7109 3.95312 13.6064 3.95312 14.7109C3.95312 15.8155 4.84856 16.7109 5.95312 16.7109Z" stroke="#636363" stroke-linecap="round"/>
<path d="M12.9531 11.7109C14.0577 11.7109 14.9531 10.8155 14.9531 9.71094C14.9531 8.60637 14.0577 7.71094 12.9531 7.71094C11.8486 7.71094 10.9531 8.60637 10.9531 9.71094C10.9531 10.8155 11.8486 11.7109 12.9531 11.7109Z" stroke="#636363" stroke-linecap="round"/>
<path d="M19.9531 17.7109C21.0577 17.7109 21.9531 16.8155 21.9531 15.7109C21.9531 14.6064 21.0577 13.7109 19.9531 13.7109C18.8486 13.7109 17.9531 14.6064 17.9531 15.7109C17.9531 16.8155 18.8486 17.7109 19.9531 17.7109Z" stroke="#636363" stroke-linecap="round"/>
</svg>
