<svg width="18" height="18" viewBox="0 0 18 18" fill="none" xmlns="http://www.w3.org/2000/svg">
<path d="M9.2704 17.4516C8.10077 17.4516 7.00073 17.2297 5.97025 16.7859C4.94041 16.3415 4.04438 15.7385 3.28218 14.977C2.51999 14.216 1.91668 13.3209 1.47228 12.2917C1.02787 11.2625 0.805664 10.1628 0.805664 8.99251C0.805664 7.82288 1.02755 6.72283 1.47133 5.69236C1.91574 4.66251 2.51873 3.76649 3.2803 3.00429C4.04125 2.24209 4.93633 1.63879 5.96555 1.19438C6.99477 0.749975 8.09451 0.527771 9.26476 0.527771C10.4344 0.527771 11.5344 0.749661 12.5649 1.19344C13.5948 1.63785 14.4908 2.24084 15.253 3.00241C16.0152 3.76336 16.6185 4.65844 17.0629 5.68766C17.5073 6.71688 17.7295 7.81661 17.7295 8.98687C17.7295 10.1565 17.5076 11.2565 17.0638 12.287C16.6194 13.3169 16.0164 14.2129 15.2549 14.9751C14.4939 15.7373 13.5988 16.3406 12.5696 16.785C11.5404 17.2294 10.4407 17.4516 9.2704 17.4516ZM9.26758 16.5114C11.3674 16.5114 13.146 15.7827 14.6033 14.3254C16.0606 12.8681 16.7893 11.0895 16.7893 8.98969C16.7893 8.87999 16.7883 8.76936 16.7865 8.65779C16.7846 8.54622 16.7777 8.43935 16.7658 8.33718C16.7238 8.75526 16.5577 9.10126 16.2675 9.37517C15.9766 9.64846 15.6203 9.78511 15.1984 9.78511H12.8112C12.3737 9.78511 11.9992 9.62966 11.6877 9.31876C11.3762 9.00724 11.2204 8.63303 11.2204 8.19615V7.40261H8.03778V5.81365C8.03778 5.37676 8.19354 5.0013 8.50507 4.68727C8.81722 4.37387 9.19205 4.21717 9.62956 4.21717H10.425V3.4932C10.425 3.03626 10.5742 2.67678 10.8725 2.41478C11.1709 2.15215 11.5272 2.00108 11.9415 1.9616C11.5197 1.79863 11.0872 1.67577 10.644 1.59303C10.2021 1.50967 9.74333 1.46798 9.26758 1.46798C7.16777 1.46798 5.3892 2.19665 3.93187 3.65398C2.47454 5.11131 1.74588 6.88988 1.74588 8.98969V9.26047C1.74588 9.34509 1.75214 9.43566 1.76468 9.53219H5.97683C6.8669 9.53219 7.6197 9.84027 8.23523 10.4564C8.85138 11.0719 9.15945 11.8219 9.15945 12.7063V13.5102H6.77225V16.077C7.15837 16.2162 7.56141 16.3233 7.98137 16.3986C8.40133 16.4738 8.83007 16.5114 9.26758 16.5114Z" fill="#636363"/>
</svg>
