<svg width="26" height="20" viewBox="0 0 26 20" fill="none" xmlns="http://www.w3.org/2000/svg">
<path d="M1.0625 19.266V18.172C1.0625 16.1408 1.86938 14.1928 3.30563 12.7566C4.74189 11.3203 6.68987 10.5134 8.72104 10.5134C10.7522 10.5134 12.7002 11.3203 14.1364 12.7566C15.5727 14.1928 16.3796 16.1408 16.3796 18.172V19.266" stroke="#636363" stroke-linecap="round"/>
<path d="M14.1914 12.7015C14.1914 11.2507 14.7677 9.85927 15.7936 8.83338C16.8195 7.80748 18.211 7.23114 19.6618 7.23114C20.3802 7.23114 21.0915 7.37264 21.7552 7.64755C22.4189 7.92246 23.022 8.32541 23.5299 8.83338C24.0379 9.34135 24.4409 9.9444 24.7158 10.6081C24.9907 11.2718 25.1322 11.9831 25.1322 12.7015V13.2486" stroke="#636363" stroke-linecap="round"/>
<path d="M8.72201 10.5134C9.88268 10.5134 10.9958 10.0523 11.8165 9.23159C12.6372 8.41087 13.0983 7.29774 13.0983 6.13707C13.0983 4.9764 12.6372 3.86327 11.8165 3.04255C10.9958 2.22184 9.88268 1.76076 8.72201 1.76076C7.56134 1.76076 6.44821 2.22184 5.62749 3.04255C4.80678 3.86327 4.3457 4.9764 4.3457 6.13707C4.3457 7.29774 4.80678 8.41087 5.62749 9.23159C6.44821 10.0523 7.56134 10.5134 8.72201 10.5134ZM19.6628 7.23115C20.5333 7.23115 21.3681 6.88534 21.9837 6.2698C22.5992 5.65427 22.945 4.81942 22.945 3.94892C22.945 3.07842 22.5992 2.24357 21.9837 1.62803C21.3681 1.01249 20.5333 0.666687 19.6628 0.666687C18.7923 0.666687 17.9574 1.01249 17.3419 1.62803C16.7264 2.24357 16.3805 3.07842 16.3805 3.94892C16.3805 4.81942 16.7264 5.65427 17.3419 6.2698C17.9574 6.88534 18.7923 7.23115 19.6628 7.23115Z" stroke="#636363" stroke-linecap="round" stroke-linejoin="round"/>
</svg>
