<svg width="19" height="20" viewBox="0 0 19 20" fill="none" xmlns="http://www.w3.org/2000/svg">
<path fill-rule="evenodd" clip-rule="evenodd" d="M7.11027 3.00918C6.59071 3.6969 6.25 4.84748 6.25 6.625C6.25 9.20975 6.96932 10.3989 7.49675 11.069C7.62242 11.2287 7.74105 11.3636 7.8633 11.5026C7.88256 11.5245 7.90191 11.5465 7.92139 11.5687C8.04682 11.7117 8.21847 11.9077 8.346 12.1177C8.4831 12.3435 8.63358 12.6874 8.58133 13.1142C8.53063 13.5283 8.31048 13.8409 8.10201 14.0616C7.46074 14.7406 6.68542 15.2231 5.95031 15.6123C5.58134 15.8076 5.20672 15.9874 4.8565 16.1553L4.85329 16.1569C4.49787 16.3273 4.16885 16.4851 3.85851 16.6494C3.22743 16.9835 2.7666 17.2983 2.46043 17.6599C2.18079 17.9901 2 18.3943 2 19C2 19.5523 1.55228 20 1 20C0.447715 20 0 19.5523 0 19C0 17.9182 0.350461 17.0567 0.934101 16.3675C1.49121 15.7095 2.22569 15.2509 2.92274 14.8818C3.26846 14.6988 3.62804 14.5264 3.97068 14.3621L3.99165 14.352C4.34699 14.1816 4.68624 14.0185 5.01453 13.8447C5.56572 13.5529 6.04242 13.2526 6.43005 12.9015C6.42602 12.8968 6.42191 12.8922 6.41772 12.8874C6.40116 12.8685 6.38369 12.8487 6.36543 12.8279C6.24404 12.69 6.08729 12.512 5.92512 12.306C5.12443 11.2886 4.25 9.66525 4.25 6.625C4.25 4.65289 4.61744 2.99097 5.51447 1.8036C6.45143 0.563364 7.84189 0 9.5 0C11.1581 0 12.5486 0.563364 13.4855 1.8036C14.3826 2.99097 14.75 4.65289 14.75 6.625C14.75 9.66525 13.8756 11.2886 13.0749 12.306C12.9127 12.512 12.756 12.6901 12.6346 12.8279C12.6163 12.8487 12.5988 12.8685 12.5823 12.8874C12.5781 12.8922 12.574 12.8968 12.5699 12.9015C12.9576 13.2526 13.4343 13.5529 13.9855 13.8447C14.3138 14.0185 14.653 14.1816 15.0084 14.352L15.0293 14.3621C15.372 14.5264 15.7315 14.6988 16.0773 14.8818C16.7743 15.2509 17.5088 15.7095 18.0659 16.3675C18.6495 17.0567 19 17.9182 19 19C19 19.5523 18.5523 20 18 20C17.4477 20 17 19.5523 17 19C17 18.3943 16.8192 17.9901 16.5396 17.6599C16.2334 17.2983 15.7726 16.9835 15.1415 16.6494C14.8312 16.4851 14.5022 16.3273 14.1467 16.1569L14.1435 16.1553C13.7933 15.9874 13.4187 15.8076 13.0497 15.6123C12.3146 15.2231 11.5393 14.7406 10.898 14.0616C10.6895 13.8409 10.4694 13.5283 10.4187 13.1142C10.3664 12.6874 10.5169 12.3435 10.654 12.1177C10.7815 11.9077 10.9532 11.7117 11.0786 11.5687C11.0981 11.5465 11.1174 11.5245 11.1367 11.5026C11.259 11.3636 11.3776 11.2287 11.5032 11.069C12.0307 10.3989 12.75 9.20975 12.75 6.625C12.75 4.84748 12.4093 3.6969 11.8897 3.00918C11.4101 2.37432 10.6756 2 9.5 2C8.32442 2 7.58988 2.37432 7.11027 3.00918ZM12.3329 12.6665C12.333 12.6665 12.3337 12.6674 12.335 12.6693C12.3335 12.6674 12.3329 12.6665 12.3329 12.6665ZM6.66708 12.6665C6.66712 12.6665 6.66647 12.6674 6.66498 12.6693C6.66628 12.6674 6.66703 12.6665 6.66708 12.6665Z" fill="#4F4F4F"/>
</svg>
