<svg width="21" height="21" viewBox="0 0 21 21" fill="none" xmlns="http://www.w3.org/2000/svg">
<path d="M1.52879 3.92386L3.08612 2.36568C3.08612 2.36568 8.7972 4.26965 12.086 6.17363L15.7479 2.51181C16.2942 1.96551 16.9891 1.58658 17.7555 1.48208C18.34 1.40222 19.0571 1.32745 19.7011 1.32745L20.0469 1.67324C20.0469 2.3164 19.9721 3.03432 19.8922 3.61885C19.7877 4.3852 19.4088 5.08018 18.8625 5.62733L15.2007 9.28914C17.1047 12.5771 19.0087 18.2882 19.0087 18.2882L17.4505 19.8455C17.4505 19.8455 14.3358 15.346 11.7394 12.7496C11.7394 12.7496 9.81588 13.9815 6.89407 16.9042C6.89407 16.9042 7.23986 18.2882 7.23986 19.6731L6.89407 20.0189C6.89407 20.0189 5.50921 18.2882 4.29767 17.0767C3.08612 15.8651 1.35547 14.4811 1.35547 14.4811L1.70126 14.1345C3.08612 14.1345 4.47099 14.4803 4.47099 14.4803C7.39279 11.5585 8.62473 9.63493 8.62473 9.63493C6.02832 7.03853 1.52879 3.92386 1.52879 3.92386Z" stroke="#636363"/>
</svg>
