<svg width="18" height="18" viewBox="0 0 18 18" fill="none" xmlns="http://www.w3.org/2000/svg">
<path d="M0.917969 15C0.917969 13.9391 1.3394 12.9217 2.08954 12.1716C2.83969 11.4214 3.8571 11 4.91797 11H12.918C13.9788 11 14.9962 11.4214 15.7464 12.1716C16.4965 12.9217 16.918 13.9391 16.918 15C16.918 15.5304 16.7073 16.0391 16.3322 16.4142C15.9571 16.7893 15.4484 17 14.918 17H2.91797C2.38754 17 1.87883 16.7893 1.50376 16.4142C1.12868 16.0391 0.917969 15.5304 0.917969 15Z" stroke="#636363" stroke-linejoin="round"/>
<path d="M8.91797 7C10.5748 7 11.918 5.65685 11.918 4C11.918 2.34315 10.5748 1 8.91797 1C7.26111 1 5.91797 2.34315 5.91797 4C5.91797 5.65685 7.26111 7 8.91797 7Z" stroke="#636363"/>
</svg>
