<svg width="25" height="24" viewBox="0 0 25 24" fill="none" xmlns="http://www.w3.org/2000/svg">
<path d="M18.1484 20H6.14844V22H4.14844V20H3.14844C2.88322 20 2.62887 19.8946 2.44133 19.7071C2.25379 19.5196 2.14844 19.2652 2.14844 19V4C2.14844 3.73478 2.25379 3.48043 2.44133 3.29289C2.62887 3.10536 2.88322 3 3.14844 3H21.1484C21.4137 3 21.668 3.10536 21.8555 3.29289C22.0431 3.48043 22.1484 3.73478 22.1484 4V19C22.1484 19.2652 22.0431 19.5196 21.8555 19.7071C21.668 19.8946 21.4137 20 21.1484 20H20.1484V22H18.1484V20ZM4.14844 18H20.1484V5H4.14844V18ZM13.1484 13.874V17H11.1484V13.874C10.2079 13.6283 9.38905 13.0486 8.84464 12.2433C8.30023 11.438 8.06753 10.4621 8.19 9.49778C8.31247 8.53346 8.78173 7.64669 9.51016 7.00303C10.2386 6.35937 11.1764 6.00284 12.1484 6C13.1227 5.99904 14.0638 6.35368 14.7952 6.99737C15.5265 7.64106 15.9978 8.52954 16.1205 9.49605C16.2433 10.4625 16.009 11.4406 15.4618 12.2467C14.9146 13.0528 14.092 13.6314 13.1484 13.874ZM12.1484 12C12.6789 12 13.1876 11.7893 13.5627 11.4142C13.9377 11.0391 14.1484 10.5304 14.1484 10C14.1484 9.46957 13.9377 8.96086 13.5627 8.58579C13.1876 8.21071 12.6789 8 12.1484 8C11.618 8 11.1093 8.21071 10.7342 8.58579C10.3592 8.96086 10.1484 9.46957 10.1484 10C10.1484 10.5304 10.3592 11.0391 10.7342 11.4142C11.1093 11.7893 11.618 12 12.1484 12Z" fill="#636363"/>
</svg>
