<svg width="17" height="17" viewBox="0 0 17 17" fill="none" xmlns="http://www.w3.org/2000/svg">
<path d="M15.8879 17L9.62594 10.738C9.12594 11.164 8.55094 11.4937 7.90094 11.727C7.25094 11.9603 6.5976 12.077 5.94094 12.077C4.3396 12.077 2.98427 11.5227 1.87494 10.414C0.765604 9.30533 0.210938 7.95033 0.210938 6.34899C0.210937 4.74766 0.764937 3.39199 1.87294 2.28199C2.98094 1.17199 4.3356 0.616326 5.93694 0.614993C7.53827 0.613659 8.89427 1.16833 10.0049 2.27899C11.1156 3.38966 11.6713 4.74533 11.6719 6.34599C11.6719 7.04066 11.5489 7.71299 11.3029 8.36299C11.0569 9.01299 10.7336 9.56899 10.3329 10.031L16.5949 16.292L15.8879 17ZM5.94094 11.076C7.2676 11.076 8.38794 10.6193 9.30194 9.70599C10.2159 8.79266 10.6726 7.67233 10.6719 6.34499C10.6713 5.01766 10.2146 3.89766 9.30194 2.98499C8.38927 2.07233 7.26927 1.61566 5.94194 1.61499C4.6146 1.61433 3.49427 2.07099 2.58094 2.98499C1.6676 3.89899 1.21094 5.01899 1.21094 6.34499C1.21094 7.67099 1.6676 8.79099 2.58094 9.70499C3.49427 10.619 4.61427 11.0767 5.94094 11.076Z" fill="#636363"/>
</svg>
