<svg width="20" height="20" viewBox="0 0 20 20" fill="none" xmlns="http://www.w3.org/2000/svg">
<path d="M9.52931 2.76753V0.804218C9.52931 0.63065 9.59826 0.464191 9.72099 0.34146C9.84372 0.21873 10.0102 0.14978 10.1837 0.14978C10.3573 0.14978 10.5238 0.21873 10.6465 0.34146C10.7692 0.464191 10.8382 0.63065 10.8382 0.804218V2.76753C10.8382 2.9411 10.7692 3.10756 10.6465 3.23029C10.5238 3.35302 10.3573 3.42197 10.1837 3.42197C10.0102 3.42197 9.84372 3.35302 9.72099 3.23029C9.59826 3.10756 9.52931 2.9411 9.52931 2.76753ZM15.4192 9.96634C15.4192 11.0018 15.1122 12.0141 14.5369 12.875C13.9616 13.736 13.1439 14.407 12.1873 14.8033C11.2306 15.1996 10.1779 15.3033 9.16235 15.1012C8.14676 14.8992 7.21389 14.4006 6.48169 13.6684C5.74949 12.9362 5.25086 12.0033 5.04885 10.9877C4.84683 9.97215 4.95051 8.91946 5.34678 7.9628C5.74304 7.00614 6.41409 6.18846 7.27506 5.61318C8.13603 5.0379 9.14826 4.73084 10.1837 4.73084C11.5718 4.73236 12.9026 5.28444 13.8841 6.26596C14.8656 7.24747 15.4177 8.57826 15.4192 9.96634ZM14.1104 9.96634C14.1104 9.18973 13.8801 8.43055 13.4486 7.78482C13.0172 7.13909 12.4039 6.63581 11.6864 6.33861C10.9689 6.04142 10.1794 5.96366 9.4177 6.11516C8.65601 6.26667 7.95635 6.64065 7.4072 7.1898C6.85806 7.73895 6.48408 8.4386 6.33257 9.20029C6.18106 9.96198 6.25882 10.7515 6.55602 11.469C6.85322 12.1865 7.3565 12.7997 8.00223 13.2312C8.64796 13.6627 9.40713 13.893 10.1837 13.893C11.2248 13.8919 12.2229 13.4778 12.9591 12.7417C13.6952 12.0055 14.1093 11.0074 14.1104 9.96634ZM4.48523 5.19386C4.60803 5.31665 4.77458 5.38564 4.94825 5.38564C5.12191 5.38564 5.28846 5.31665 5.41126 5.19385C5.53406 5.07106 5.60305 4.90451 5.60305 4.73084C5.60305 4.55718 5.53406 4.39063 5.41126 4.26783L4.10239 2.95895C3.97959 2.83615 3.81304 2.76717 3.63937 2.76717C3.46571 2.76717 3.29916 2.83615 3.17636 2.95895C3.05356 3.08175 2.98457 3.2483 2.98457 3.42197C2.98457 3.59563 3.05356 3.76218 3.17636 3.88498L4.48523 5.19386ZM4.48523 14.7388L3.17636 16.0477C3.05356 16.1705 2.98457 16.337 2.98457 16.5107C2.98457 16.6844 3.05356 16.8509 3.17636 16.9737C3.29916 17.0965 3.46571 17.1655 3.63937 17.1655C3.81304 17.1655 3.97959 17.0965 4.10239 16.9737L5.41126 15.6649C5.47207 15.604 5.5203 15.5319 5.55321 15.4524C5.58611 15.373 5.60305 15.2878 5.60305 15.2018C5.60305 15.1158 5.58611 15.0307 5.55321 14.9513C5.5203 14.8718 5.47207 14.7996 5.41126 14.7388C5.35046 14.678 5.27827 14.6298 5.19883 14.5969C5.11939 14.564 5.03424 14.547 4.94825 14.547C4.86226 14.547 4.77711 14.564 4.69767 14.5969C4.61822 14.6298 4.54604 14.678 4.48523 14.7388ZM15.4192 5.38528C15.5052 5.38535 15.5904 5.36847 15.6698 5.33563C15.7492 5.30278 15.8214 5.25461 15.8823 5.19386L17.1911 3.88498C17.3139 3.76218 17.3829 3.59563 17.3829 3.42197C17.3829 3.2483 17.3139 3.08175 17.1911 2.95895C17.0683 2.83615 16.9018 2.76717 16.7281 2.76717C16.5545 2.76717 16.3879 2.83615 16.2651 2.95895L14.9562 4.26783C14.8646 4.35935 14.8022 4.47601 14.7769 4.60302C14.7516 4.73004 14.7646 4.86171 14.8141 4.98135C14.8637 5.101 14.9477 5.20325 15.0554 5.27515C15.1631 5.34705 15.2897 5.38538 15.4192 5.38528ZM15.8823 14.7388C15.7595 14.616 15.5929 14.547 15.4192 14.547C15.2456 14.547 15.079 14.616 14.9562 14.7388C14.8334 14.8616 14.7644 15.0282 14.7644 15.2018C14.7644 15.3755 14.8334 15.5421 14.9562 15.6649L16.2651 16.9737C16.3259 17.0345 16.3981 17.0828 16.4775 17.1157C16.557 17.1486 16.6421 17.1655 16.7281 17.1655C16.8141 17.1655 16.8993 17.1486 16.9787 17.1157C17.0581 17.0828 17.1303 17.0345 17.1911 16.9737C17.2519 16.9129 17.3002 16.8407 17.3331 16.7613C17.366 16.6818 17.3829 16.5967 17.3829 16.5107C17.3829 16.4247 17.366 16.3396 17.3331 16.2601C17.3002 16.1807 17.2519 16.1085 17.1911 16.0477L15.8823 14.7388ZM3.63937 9.96634C3.63937 9.79277 3.57042 9.62631 3.44769 9.50358C3.32496 9.38085 3.1585 9.3119 2.98494 9.3119H1.02162C0.848057 9.3119 0.681598 9.38085 0.558868 9.50358C0.436137 9.62631 0.367188 9.79277 0.367188 9.96634C0.367188 10.1399 0.436137 10.3064 0.558868 10.4291C0.681598 10.5518 0.848057 10.6208 1.02162 10.6208H2.98494C3.1585 10.6208 3.32496 10.5518 3.44769 10.4291C3.57042 10.3064 3.63937 10.1399 3.63937 9.96634ZM10.1837 16.5107C10.0102 16.5107 9.84372 16.5797 9.72099 16.7024C9.59826 16.8251 9.52931 16.9916 9.52931 17.1651V19.1285C9.52931 19.302 9.59826 19.4685 9.72099 19.5912C9.84372 19.7139 10.0102 19.7829 10.1837 19.7829C10.3573 19.7829 10.5238 19.7139 10.6465 19.5912C10.7692 19.4685 10.8382 19.302 10.8382 19.1285V17.1651C10.8382 16.9916 10.7692 16.8251 10.6465 16.7024C10.5238 16.5797 10.3573 16.5107 10.1837 16.5107ZM19.3459 9.3119H17.3826C17.209 9.3119 17.0425 9.38085 16.9198 9.50358C16.7971 9.62631 16.7281 9.79277 16.7281 9.96634C16.7281 10.1399 16.7971 10.3064 16.9198 10.4291C17.0425 10.5518 17.209 10.6208 17.3826 10.6208H19.3459C19.5194 10.6208 19.6859 10.5518 19.8086 10.4291C19.9314 10.3064 20.0003 10.1399 20.0003 9.96634C20.0003 9.79277 19.9314 9.62631 19.8086 9.50358C19.6859 9.38085 19.5194 9.3119 19.3459 9.3119Z" fill="#636363"/>
</svg>
