<svg width="25" height="24" viewBox="0 0 25 24" fill="none" xmlns="http://www.w3.org/2000/svg">
<path d="M21.2852 17H3.28516V5H21.2852M21.2852 3H3.28516C2.75472 3 2.24602 3.21071 1.87094 3.58579C1.49587 3.96086 1.28516 4.46957 1.28516 5V17C1.28516 17.5304 1.49587 18.0391 1.87094 18.4142C2.24602 18.7893 2.75472 19 3.28516 19H8.28516V21H16.2852V19H21.2852C21.8156 19 22.3243 18.7893 22.6994 18.4142C23.0744 18.0391 23.2852 17.5304 23.2852 17V5C23.2852 4.46957 23.0744 3.96086 22.6994 3.58579C22.3243 3.21071 21.8156 3 21.2852 3Z" fill="#636363"/>
</svg>
