<svg width="33" height="37" viewBox="0 0 33 37" fill="none" xmlns="http://www.w3.org/2000/svg">
<path fill-rule="evenodd" clip-rule="evenodd" d="M16.5 0C11.4374 0 7.33333 4.14137 7.33333 9.25C7.33333 14.3586 11.4374 18.5 16.5 18.5C21.5626 18.5 25.6667 14.3586 25.6667 9.25C25.6667 4.14137 21.5626 0 16.5 0ZM11 9.25C11 6.18482 13.4624 3.7 16.5 3.7C19.5376 3.7 22 6.18482 22 9.25C22 12.3152 19.5376 14.8 16.5 14.8C13.4624 14.8 11 12.3152 11 9.25Z" fill="#636363"/>
<path d="M9.16667 22.2C6.73551 22.2 4.40394 23.1746 2.68485 24.9093C0.965771 26.644 0 28.9967 0 31.45V35.15C0 36.1717 0.820811 37 1.83333 37C2.84586 37 3.66667 36.1717 3.66667 35.15V31.45C3.66667 29.978 4.24613 28.5664 5.27758 27.5256C6.30903 26.4847 7.70798 25.9 9.16667 25.9H23.8333C25.292 25.9 26.691 26.4847 27.7224 27.5256C28.7539 28.5664 29.3333 29.9781 29.3333 31.45V35.15C29.3333 36.1717 30.1541 37 31.1667 37C32.1792 37 33 36.1717 33 35.15V31.45C33 28.9967 32.0342 26.644 30.3151 24.9093C28.5961 23.1746 26.2645 22.2 23.8333 22.2H9.16667Z" fill="#636363"/>
</svg>
