<svg width="19" height="16" viewBox="0 0 19 16" fill="none" xmlns="http://www.w3.org/2000/svg">
<path d="M13.8223 0C12.0353 0 10.4814 0.805851 9.5675 2.15631C8.65358 0.805851 7.09974 0 5.31274 0C3.95911 0.00157648 2.66136 0.540004 1.7042 1.49717C0.747035 2.45433 0.208608 3.75207 0.207031 5.10571C0.207031 7.59049 1.75576 10.1765 4.81068 12.7907C6.21054 13.9835 7.72265 15.0379 9.32583 15.9392C9.40012 15.9791 9.48315 16 9.5675 16C9.65184 16 9.73487 15.9791 9.80917 15.9392C11.4123 15.0379 12.9245 13.9835 14.3243 12.7907C17.3792 10.1765 18.928 7.59049 18.928 5.10571C18.9264 3.75207 18.388 2.45433 17.4308 1.49717C16.4736 0.540004 15.1759 0.00157648 13.8223 0ZM9.5675 14.901C8.17109 14.0952 1.22817 9.84721 1.22817 5.10571C1.2293 4.02276 1.66 2.98449 2.42576 2.21873C3.19152 1.45297 4.22979 1.02227 5.31274 1.02114C7.03847 1.02114 8.48764 1.94272 9.09522 3.42678C9.13369 3.52043 9.19912 3.60052 9.28322 3.65689C9.36731 3.71326 9.46626 3.74335 9.5675 3.74335C9.66873 3.74335 9.76769 3.71326 9.85178 3.65689C9.93587 3.60052 10.0013 3.52043 10.0398 3.42678C10.6474 1.94272 12.0965 1.02114 13.8223 1.02114C14.9052 1.02227 15.9435 1.45297 16.7092 2.21873C17.475 2.98449 17.9057 4.02276 17.9068 5.10571C17.9068 9.84721 10.9639 14.0952 9.5675 14.901Z" fill="#636363"/>
</svg>
